<svg width="46" height="31" viewBox="0 0 46 31" fill="none" xmlns="http://www.w3.org/2000/svg">
<path d="M21.85 13.9906C21.85 13.3536 22.3652 12.8367 23 12.8367H37.95C38.5848 12.8367 39.1 13.3536 39.1 13.9906C39.1 14.6275 38.5848 15.1444 37.95 15.1444H23C22.3652 15.1444 21.85 14.6275 21.85 13.9906ZM23 19.7598H37.95C38.5848 19.7598 39.1 19.2429 39.1 18.6059C39.1 17.969 38.5848 17.4521 37.95 17.4521H23C22.3652 17.4521 21.85 17.969 21.85 18.6059C21.85 19.2429 22.3652 19.7598 23 19.7598ZM5.75 23.2213V13.9906C5.75 13.3536 6.2652 12.8367 6.9 12.8367H16.1C16.7348 12.8367 17.25 13.3536 17.25 13.9906V23.2213C17.25 23.8583 16.7348 24.3752 16.1 24.3752H6.9C6.2652 24.3752 5.75 23.8583 5.75 23.2213ZM8.05 22.0675H14.95V15.1444H8.05V22.0675ZM46 3.60595V26.6829C46 28.5913 44.4521 30.1444 42.55 30.1444H3.45C1.5479 30.1444 0 28.5913 0 26.6829V3.60595C0 1.69749 1.5479 0.144409 3.45 0.144409H42.55C44.4521 0.144409 46 1.69749 46 3.60595ZM43.7 9.37518H2.3V26.6829C2.3 27.3186 2.81635 27.8367 3.45 27.8367H42.55C43.1837 27.8367 43.7 27.3186 43.7 26.6829V9.37518ZM43.7 3.60595C43.7 2.97018 43.1837 2.4521 42.55 2.4521H3.45C2.81635 2.4521 2.3 2.97018 2.3 3.60595V7.06749H43.7V3.60595ZM23 24.3752H33.35C33.9848 24.3752 34.5 23.8583 34.5 23.2213C34.5 22.5844 33.9848 22.0675 33.35 22.0675H23C22.3652 22.0675 21.85 22.5844 21.85 23.2213C21.85 23.8583 22.3652 24.3752 23 24.3752Z" fill="#0245A5"/>
</svg>
